Coordinates
version=1
nRows=12
nColumns=24
inDegrees=yes

Units are S.I. units (second, meters, Newtons, ...)
Angles are in degrees.

endheader
time	pelvis_tilt	pelvis_list	pelvis_rotation	pelvis_tx	pelvis_ty	pelvis_tz	hip_flexion_r	hip_adduction_r	hip_rotation_r	knee_angle_r	ankle_angle_r	subtalar_angle_r	mtp_angle_r	hip_flexion_l	hip_adduction_l	hip_rotation_l	knee_angle_l	ankle_angle_l	subtalar_angle_l	mtp_angle_l	lumbar_extension	lumbar_bending	lumbar_rotation
      0.52500000	     -1.71486742	      5.14039901	     -2.37404103	     -0.83388291	      1.04951680	      0.36128301	     23.80795406	     -0.46226111	     -7.19221245	      0.79614124	      0.69117515	     -2.35431191	     -0.00401835	    -13.73847390	      9.95957554	     -2.17416096	     -3.91137388	      9.63802018	      1.49898046	      0.06363041	      6.06537802	     -3.15525771	     -1.61589721
      0.52916667	     -1.73797787	      5.13898963	     -2.48950411	     -0.82819940	      1.04900694	      0.36163546	     23.78036705	     -0.34169209	     -7.03864715	      0.63625767	      0.53446996	     -2.33259445	      0.00801618	    -13.82894197	      9.97515306	     -2.30870687	     -4.31077443	      9.50471786	      1.43458557	      0.00894025	      6.18506230	     -3.29556456	     -1.74739970
      0.53333333	     -1.75641418	      5.13516305	     -2.51486476	     -0.82252351	      1.04857602	      0.36177861	     23.74199811	     -0.26809126	     -6.97341289	      0.40569926	      0.51651887	     -2.35492897	      0.01119652	    -13.91657903	      9.97375010	     -2.26361583	     -4.74491281	      9.47333267	      1.41736170	     -0.00104640	      6.23211482	     -3.24463931	     -1.77095188
      0.53750000	     -1.76742202	      5.12031074	     -2.54079396	     -0.81675544	      1.04820962	      0.36192772	     23.68721326	     -0.18769260	     -6.89263692	      0.13459084	      0.48594607	     -2.38888502	      0.01456983	    -13.98489456	      9.95754224	     -2.23900832	     -5.24512015	      9.44402129	      1.38309602	     -0.01020014	      6.28359286	     -3.19688556	     -1.79025399
      0.54166667	     -1.77683928	      5.10123706	     -2.56698077	     -0.81095643	      1.04786002	      0.36203717	     23.63076812	     -0.11220744	     -6.78822796	     -0.18002891	      0.43301080	     -2.44259289	      0.01839042	    -14.04441269	      9.93839670	     -2.23240963	     -5.76541992	      9.40875613	      1.34196940	     -0.01917879	      6.33685783	     -3.14230395	     -1.80945472
      0.54583333	     -1.78203268	      5.07572967	     -2.59489279	     -0.80512850	      1.04753804	      0.36213939	     23.56601550	     -0.03559817	     -6.66177430	     -0.52312079	      0.35306844	     -2.50769585	      0.02216763	    -14.09840482	      9.91144685	     -2.23570810	     -6.30558570	      9.35806594	      1.30174121	     -0.02674880	      6.38936143	     -3.08230788	     -1.82660209
      0.55000000	     -1.86547977	      5.05138441	     -2.75545428	     -0.79921283	      1.04705778	      0.36255749	     23.58233113	      0.10980286	     -6.21786932	     -0.86055503	     -0.07890733	     -3.02524665	      0.04343310	    -14.03404496	      9.89693764	     -2.54531483	     -6.88724043	      9.19212721	      1.18735222	     -0.06257654	      6.38773646	     -2.99556808	     -1.89215778
      0.55416667	     -1.82492583	      5.01163712	     -2.75538191	     -0.79333777	      1.04689666	      0.36257707	     23.44728270	      0.17051207	     -6.07364525	     -1.22312955	     -0.15399458	     -3.08538283	      0.04803130	    -14.10167819	      9.84674324	     -2.47999153	     -7.50031730	      9.12807329	      1.19730942	     -0.06555042	      6.50628846	     -2.95464474	     -1.88550594
      0.55833333	     -1.83112675	      4.95414765	     -2.91899246	     -0.78735068	      1.04661899	      0.36311268	     23.33350721	      0.34533418	     -5.46203143	     -1.50722640	     -0.88054609	     -4.04643822	      0.09444608	    -14.08984981	      9.77738521	     -2.81818404	     -8.13494243	      8.84882928	      1.43001390	     -0.07909681	      6.62107091	     -2.88683592	     -1.85605716
      0.56250000	     -1.87286743	      4.88618904	     -2.94985271	     -0.78133893	      1.04640221	      0.36348238	     23.22784628	      0.47662060	     -4.97267515	     -1.79142860	     -1.22553002	     -4.75808251	      0.18526161	    -14.00420598	      9.65616968	     -3.07870198	     -8.88713742	      8.84807924	      1.75246966	     -0.05122573	      6.68389349	     -2.80875222	     -1.76290905
      0.56666667	     -1.84686881	      4.83222887	     -2.94568198	     -0.77538628	      1.04633986	      0.36349703	     23.09332286	      0.53246925	     -4.86534557	     -2.17669939	     -1.33179874	     -4.75096898	      0.19116415	    -13.98338805	      9.57619892	     -3.09622713	     -9.64159575	      8.75674346	      1.73840736	     -0.04863004	      6.73151031	     -2.71538837	     -1.76842772
      0.57083333	     -1.89504410	      4.72845550	     -2.99173705	     -0.76922880	      1.04620244	      0.36371633	     23.01906126	      0.67694537	     -4.73860080	     -2.52926925	     -1.78922772	     -4.84535485	      0.20805692	    -13.85347503	      9.42880280	     -3.44094950	    -10.44660605	      8.46048376	      1.81700903	     -0.03319058	      6.66954894	     -2.54947836	     -1.79525684
